<svg xmlns="http://www.w3.org/2000/svg" xmlns:xlink="http://www.w3.org/1999/xlink" version="1.1" x="0px" y="0px" viewBox="0 0 100 100" enable-background="new 0 0 100 100" xml:space="preserve"><path style="fill:#60bee5;" d="M33.3,66.8c-1.3-0.6-2.8,0-3.4,1.3l-2.1,4.8c-0.6,1.3,0,2.9,1.3,3.5c0.3,0.2,0.7,0.2,1.1,0.2c1,0,1.9-0.6,2.4-1.6l2.1-4.8  C35.1,69,34.5,67.4,33.3,66.8z"/><path style="fill:#60bee5;" d="M59.8,72.8c-1.3-0.6-2.8,0-3.4,1.3l-2.1,4.8c-0.6,1.3,0,2.9,1.3,3.5c0.3,0.2,0.7,0.2,1.1,0.2c1,0,1.9-0.6,2.4-1.6l2.1-4.8  C61.7,75,61.1,73.4,59.8,72.8z"/><path style="fill:#60bee5;" d="M48.4,64.7c-1.3-0.6-2.8,0-3.4,1.3l-2.1,4.8c-0.6,1.3,0,2.9,1.3,3.5c0.3,0.2,0.7,0.2,1.1,0.2c1,0,1.9-0.6,2.4-1.6l2.1-4.8  C50.3,66.8,49.7,65.3,48.4,64.7z"/><path style="fill:#60bee5;" d="M72.3,26.4c-0.6,0-1.2,0-1.8,0.1c-1.9-6.5-7.9-11.2-14.7-11.2c-0.8,0-1.9,0.1-2.9,0.2c-3.9-3.4-8-5-12.8-5  c-10.3,0-18.6,7.6-20.3,18.2c-4.5,2.9-7.4,7.7-7.4,12.4C12.3,49.4,18.9,56,27,56h6.7l-2,2l4.8,4.8l4.8-4.8l-2-2h33.2  c8.4,0,15.4-6.8,15.4-14.8C87.7,33.2,80.6,26.4,72.3,26.4z M72.3,50.7H27c-5.9,0-9.5-4.9-9.5-9.4c0-3.1,2.4-6.6,5.8-8.4l1.3-0.7  l0.1-1.4c0.9-8.6,7.4-14.9,15.4-14.9c3.9,0,7.1,1.4,10.3,4.5l1,1l1.3-0.3c0.7-0.2,2.2-0.3,3.1-0.3c5.2,0,9.5,4,10.1,9.2l0.4,3 l2.9-0.8c1-0.3,2.1-0.4,3.1-0.4c5.5,0,10.2,4.4,10.2,9.5C82.5,46.2,77.7,50.7,72.3,50.7z"/><rect style="fill:#60bee5;" x="37.5" y="81.3" transform="matrix(0.7071 -0.7071 0.7071 0.7071 -47.8977 53.713)" width="6.7" height="6.7"/><rect style="fill:#60bee5;" x="59.5" y="60.1" transform="matrix(0.7071 -0.7071 0.7071 0.7071 -26.4189 63.069)" width="6.7" height="6.7"/></svg>
