<svg xmlns="http://www.w3.org/2000/svg" xmlns:xlink="http://www.w3.org/1999/xlink" version="1.1" x="0px" y="0px" viewBox="0 0 100 100" enable-background="new 0 0 100 100" xml:space="preserve"><g><path style="fill:#60bee5;" d="M77.3,42.4c-1,0-1.9,0.1-2.9,0.3c-3-9.2-11.8-15.4-21.2-13.8c-4.3-3.6-9.6-5.5-15.1-5.5c-12,0-22.9,10-24.5,22.1   c-5.1,3-8.3,8.5-8.3,14.4c0,9.2,7.5,16.7,16.7,16.7h55.3c9.6,0,17.5-7.7,17.5-17.1C94.7,50.1,86.9,42.4,77.3,42.4z M77.3,71.3H22   c-6.3,0-11.4-5.1-11.4-11.4c0-4.4,2.6-8.4,6.6-10.3l1.4-0.7l0.1-1.6c0.7-9.9,9.7-18.7,19.3-18.7c4.6,0,9,1.8,12.6,5l1.1,1l1.4-0.4   c7.9-2,15.2,3.7,16.8,12l0.6,3l2.9-1c1.4-0.5,2.7-0.7,4-0.7c6.7,0,12.2,5.3,12.2,11.8C89.4,66,84,71.3,77.3,71.3z"/></g></svg>
