<svg xmlns="http://www.w3.org/2000/svg" xmlns:xlink="http://www.w3.org/1999/xlink" version="1.1" x="0px" y="0px" viewBox="0 0 100 100" enable-background="new 0 0 100 100" xml:space="preserve"><path style="fill:#60bee5;" d="M38,88.3c-1.3-0.6-2.8,0-3.4,1.3l-2.1,4.8c-0.6,1.3,0,2.9,1.3,3.5c0.3,0.2,0.7,0.2,1.1,0.2c1,0,1.9-0.6,2.3-1.5l2.1-4.8  C39.9,90.5,39.3,88.9,38,88.3z"/><path style="fill:#60bee5;" d="M29.2,76c-1.3-0.6-2.8,0-3.4,1.3l-2.1,4.8c-0.6,1.3,0,2.9,1.3,3.5c0.3,0.2,0.7,0.2,1.1,0.2c1,0,1.9-0.6,2.4-1.6l2.1-4.8  C31.1,78.2,30.5,76.6,29.2,76z"/><path style="fill:#60bee5;" d="M44.4,73.9c-1.3-0.6-2.8,0-3.4,1.3L38.9,80c-0.6,1.3,0,2.9,1.3,3.5c0.3,0.2,0.7,0.2,1.1,0.2c1,0,1.9-0.6,2.4-1.6l2.1-4.8  C46.3,76,45.7,74.5,44.4,73.9z"/><path style="fill:#60bee5;" d="M57.8,76c-1.3-0.6-2.8,0-3.4,1.3l-2.1,4.8c-0.6,1.3,0,2.9,1.3,3.5c0.3,0.2,0.7,0.2,1.1,0.2c1,0,1.9-0.6,2.4-1.6l2.1-4.8  C59.7,78.2,59.1,76.6,57.8,76z"/><path style="fill:#60bee5;" d="M62.6,12.3h0.5c1,0,1.9-0.8,1.9-1.9V3.6c0-1-0.8-1.9-1.9-1.9h-0.5c-1,0-1.9,0.8-1.9,1.9v6.8C60.8,11.4,61.6,12.3,62.6,12.3z  "/><path style="fill:#60bee5;" d="M73.8,16.9c0.7,0.7,1.9,0.7,2.6,0l4.8-4.8c0.7-0.7,0.7-1.9,0-2.6l-0.3-0.3c-0.7-0.7-1.9-0.7-2.6,0l-4.8,4.8  c-0.7,0.7-0.7,1.9,0,2.6L73.8,16.9z"/><path style="fill:#60bee5;" d="M86.7,25.4H80c-1,0-1.9,0.8-1.9,1.9v0.5c0,1,0.8,1.9,1.9,1.9h6.8c1,0,1.9-0.8,1.9-1.9v-0.5C88.6,26.3,87.8,25.4,86.7,25.4z"/><path style="fill:#60bee5;" d="M49.3,16.9c0.7,0.7,1.9,0.7,2.6,0l0.3-0.3c0.7-0.7,0.7-1.9,0-2.6l-4.8-4.8c-0.7-0.7-1.9-0.7-2.6,0l-0.3,0.3  c-0.7,0.7-0.7,1.9,0,2.6L49.3,16.9z"/><path style="fill:#60bee5;" d="M71.4,35.6c-0.4,0-0.8,0-1.1,0.1c2.2-2,3.7-4.9,3.7-8.2c0-6.1-4.9-11-11-11c-5.1,0-9.5,3.5-10.7,8.3c-0.1,0-0.1,0-0.2,0  c-3.9-3.4-8-5-12.8-5c-10.3,0-18.6,7.6-20.3,18.2c-4.5,2.9-7.4,7.7-7.4,12.4c0,8.1,6.6,14.8,14.7,14.8h5.1l-1.1,2.4  c-0.6,1.3,0,2.9,1.3,3.5c0.3,0.2,0.7,0.2,1.1,0.2c1,0,1.9-0.6,2.3-1.5l2.1-4.7h8.6l-0.1,0.3c-0.6,1.3,0,2.9,1.3,3.5  c0.3,0.2,0.7,0.2,1.1,0.2c1,0,1.9-0.6,2.4-1.5l1.1-2.5h8.7l-1.1,2.4c-0.6,1.3,0,2.9,1.3,3.5c0.4,0.2,0.7,0.2,1.1,0.2  c1,0,1.9-0.6,2.3-1.5l2.1-4.7h5.9c8.4,0,15.4-6.8,15.4-14.8C86.8,42.4,79.8,35.6,71.4,35.6z M16.6,50.4c0-3.1,2.4-6.6,5.8-8.4  l1.3-0.7l0.1-1.4c0.9-8.6,7.4-14.9,15.4-14.9c1.1,0,2.1,0.1,3.1,0.3c1.9,0.4,3.6,1.2,5.3,2.5c0.6,0.5,1.3,1,1.9,1.6l1,1l1.3-0.3  c0.1,0,0.2,0,0.3-0.1c0.8-0.1,2-0.2,2.8-0.2c4.9,0,9,3.6,10,8.5c0,0.3,0.1,0.5,0.2,0.8l0.4,3l2.9-0.8c1-0.3,2.1-0.4,3.1-0.4  c0.8,0,1.5,0.1,2.2,0.3c2.9,0.7,5.4,2.5,6.8,5c0.7,1.3,1.2,2.7,1.2,4.2c0,5-4.8,9.4-10.2,9.4H26.1C20.2,59.9,16.6,55,16.6,50.4z"/></svg>
