<svg xmlns="http://www.w3.org/2000/svg" xmlns:xlink="http://www.w3.org/1999/xlink" version="1.1" x="0px" y="0px" viewBox="0 0 100 100" enable-background="new 0 0 100 100" xml:space="preserve"><path style="fill:#60bee5;" d="M72.3,26.7c-0.6,0-1.2,0-1.8,0.1c-1.9-6.5-7.9-11.2-14.7-11.2c-0.8,0-1.9,0.1-2.9,0.2c-3.9-3.4-8-5-12.8-5  c-10.3,0-18.6,7.6-20.3,18.2c-4.5,2.9-7.4,7.7-7.4,12.4c0,8.1,6.6,14.8,14.7,14.8h15.6l-5.7,16.9h8.6l-5.3,16.1l19.2-21.8H49.1  l6.5-11.2h16.7c8.4,0,15.4-6.8,15.4-14.8C87.7,33.4,80.6,26.7,72.3,26.7z M58.7,50.9H44.4H27c-5.9,0-9.5-4.9-9.5-9.4  c0-3.1,2.4-6.6,5.8-8.4l1.3-0.7l0.1-1.4c0.9-8.6,7.4-14.9,15.4-14.9c3.9,0,7.1,1.4,10.3,4.5l1,1l1.3-0.3c0.7-0.2,2.2-0.3,3.1-0.3  c5.2,0,9.5,4,10.1,9.2l0.4,3l2.9-0.8c1-0.3,2.1-0.4,3.1-0.4c5.5,0,10.2,4.4,10.2,9.5c0,5-4.8,9.4-10.2,9.4H58.7z"/></svg>
