<svg xmlns="http://www.w3.org/2000/svg" xmlns:xlink="http://www.w3.org/1999/xlink" version="1.1" x="0px" y="0px" viewBox="0 0 100 100" enable-background="new 0 0 100 100" xml:space="preserve"><path style="fill:#60bee5;" d="M73.2,22.8c-5.5-2.7-13-5.2-21.1-6.9c-12-2.6-32.6-4.7-34.3,3.2c-0.7,3.5,2.2,6.8,9,10.1c5.5,2.7,13,5.2,21.1,6.9  c5.7,1.2,13.3,2.3,19.9,2.3c7.4,0,13.5-1.4,14.4-5.6C82.9,29.4,80,26.1,73.2,22.8z M49,30.9c-15.7-3.4-24.8-8.5-25.8-10.7  c1.9-1.6,12.2-2.5,27.9,0.8c15.7,3.4,24.8,8.5,25.8,10.7C75,33.3,64.7,34.3,49,30.9z"/><path style="fill:#60bee5;" d="M76.9,43.2c-16.7,3.5-39.1-0.4-50.9-9.1c-1.2-0.9-2.8-0.6-3.7,0.6c-0.9,1.2-0.6,2.8,0.6,3.7c9.7,7.1,25.9,11.3,41.1,11.3  c4.9,0,9.7-0.4,14.1-1.4c1.4-0.3,2.4-1.7,2-3.1C79.8,43.8,78.4,42.9,76.9,43.2z"/><path style="fill:#60bee5;" d="M55.7,59.8c2.4,0,4.9-0.1,7.5-0.3c1.5-0.1,2.6-1.4,2.5-2.8c-0.1-1.5-1.4-2.6-2.8-2.5c-16.6,1.2-26.5-1.2-37.5-9  c-1.2-0.8-2.9-0.6-3.7,0.6c-0.8,1.2-0.6,2.9,0.6,3.7C32.6,56.8,42.1,59.8,55.7,59.8z"/><path style="fill:#60bee5;" d="M46.9,63.1c-10.8,0.6-15.7-2.6-20.6-6.5c-1.2-0.9-2.8-0.7-3.7,0.4c-0.9,1.1-0.7,2.8,0.4,3.7c4.9,3.9,10.7,7.7,21.5,7.7  c0.9,0,1.7,0,2.7-0.1c1.5-0.1,2.6-1.3,2.5-2.8C49.7,64.1,48.5,63,46.9,63.1z"/><path style="fill:#60bee5;" d="M43.5,72.9c-4.7,0-7.1-0.7-9.5-2.9c-1.1-1-2.8-0.9-3.8,0.2S29.3,73,30.4,74c3.9,3.6,8.1,4.4,13.1,4.4c1.5,0,2.7-1.2,2.7-2.7  C46.1,74.1,44.9,72.9,43.5,72.9z"/><path style="fill:#60bee5;" d="M41.5,81.1c-0.6,0-1-0.1-1.3-0.3c-1.1-1-2.8-0.9-3.7,0.3c-1,1.1-0.9,2.8,0.3,3.7c1.3,1.1,2.9,1.7,4.8,1.7  c1.5,0,2.7-1.2,2.7-2.7C44.1,82.3,42.9,81.1,41.5,81.1z"/></svg>
